<?xml version="1.0" standalone="no"?>
<!DOCTYPE svg PUBLIC "-//W3C//DTD SVG 20010904//EN"
 "http://www.w3.org/TR/2001/REC-SVG-20010904/DTD/svg10.dtd">
<svg version="1.0" xmlns="http://www.w3.org/2000/svg"
 width="260.000000pt" height="260.000000pt" viewBox="0 0 260.000000 260.000000"
 preserveAspectRatio="xMidYMid meet">
<metadata>
Created by potrace 1.14, written by Peter Selinger 2001-2017
</metadata>
<g transform="translate(0.000000,260.000000) scale(0.100000,-0.100000)"
fill="#000000" stroke="none">
<path d="M1097 2180 c-1 -3 -41 -13 -89 -22 -99 -19 -196 -58 -229 -94 -12
-13 -19 -24 -15 -24 4 0 83 25 174 54 92 30 192 61 222 69 l55 14 -58 4 c-31
2 -58 2 -60 -1z"/>
<path d="M1045 2045 c-44 -7 -126 -24 -182 -39 -125 -32 -127 -32 -113 -5 11
19 9 20 -27 13 -21 -3 -53 -13 -71 -20 -18 -7 -30 -9 -27 -4 8 13 5 12 -34 -1
-37 -13 -65 -60 -57 -95 4 -14 25 -34 51 -50 25 -14 45 -30 45 -35 0 -5 9 -9
20 -9 13 0 18 -5 14 -15 -5 -13 -3 -13 17 -2 13 6 46 27 72 45 113 79 267 128
492 157 71 9 131 18 133 19 1 2 -26 7 -60 11 -62 8 -63 8 -28 18 19 5 46 13
60 17 41 14 -217 9 -305 -5z"/>
<path d="M1136 1774 c-55 -7 -140 -25 -190 -40 -179 -53 -189 -55 -197 -42 -6
10 -16 9 -45 -1 -29 -11 -38 -11 -44 -1 -11 18 -40 4 -40 -19 0 -10 21 -45 47
-78 26 -32 48 -60 49 -62 2 -2 22 12 46 32 64 51 137 85 256 116 59 16 130 38
159 49 28 12 89 29 135 38 46 9 85 18 87 20 10 9 -172 1 -263 -12z"/>
<path d="M1024 1670 c-177 -46 -347 -169 -331 -238 2 -10 7 -1 11 20 15 69 75
108 281 183 169 61 182 73 39 35z"/>
<path d="M1205 1563 c-17 -4 -382 -125 -422 -140 -9 -4 -13 5 -13 26 0 38 -12
39 -39 5 -30 -38 -25 -53 30 -102 l48 -44 48 40 c87 73 188 130 328 188 71 30
79 41 20 27z"/>
<path d="M1222 1390 c-12 -5 -64 -34 -115 -64 -50 -30 -111 -62 -135 -71 -41
-17 -43 -17 -57 1 -12 16 -17 17 -34 7 -65 -40 -11 21 66 74 29 20 51 38 49
40 -10 10 -70 -32 -126 -86 -38 -37 -60 -53 -60 -43 0 15 -2 14 -17 -1 -24
-24 -8 -48 44 -67 23 -8 61 -29 85 -47 l44 -31 28 43 c30 48 169 183 228 223
50 33 50 42 0 22z"/>
<path d="M1121 1199 c-44 -38 -81 -74 -81 -79 0 -4 -13 -21 -30 -37 -19 -18
-28 -34 -24 -45 3 -10 1 -18 -5 -18 -5 0 -11 15 -13 33 l-4 32 -8 -29 c-14
-46 2 -61 65 -61 30 0 62 -4 71 -9 12 -5 20 -1 29 16 7 13 39 51 72 85 l60 63
-64 -22 c-35 -11 -68 -24 -74 -28 -5 -4 -18 -10 -28 -13 -15 -6 -16 -4 -6 16
16 29 65 94 103 135 48 51 25 38 -63 -39z"/>
<path d="M1334 1038 c-16 -12 -50 -41 -76 -65 -51 -46 -68 -53 -68 -26 0 14
-4 13 -25 -7 -27 -25 -25 -40 6 -40 20 0 51 -15 80 -37 13 -11 19 -4 45 49 16
34 28 66 26 71 -2 5 6 19 16 31 21 24 35 46 29 46 -2 0 -17 -10 -33 -22z"/>
<path d="M1366 906 c-8 -14 -32 -41 -53 -61 -27 -26 -39 -32 -45 -23 -5 9 -8
7 -8 -7 0 -14 13 -26 43 -40 32 -16 41 -25 40 -42 -2 -14 7 -29 26 -42 34 -24
41 -26 41 -8 0 7 9 30 21 51 14 27 17 42 10 49 -8 8 -11 8 -11 -1 0 -7 -7 -12
-16 -12 -8 0 -23 -8 -32 -17 -28 -28 -27 8 2 66 30 58 31 65 11 57 -17 -6 -19
7 -5 35 15 28 -5 24 -24 -5z"/>
<path d="M1407 653 c-13 -12 -7 -41 9 -47 15 -6 43 17 44 35 0 14 -42 24 -53
12z"/>
<path d="M1412 548 c-14 -14 -16 -44 -3 -53 9 -5 51 44 51 59 0 11 -36 6 -48
-6z"/>
<path d="M1393 444 c-10 -27 11 -33 30 -8 17 23 17 24 -3 24 -11 0 -23 -7 -27
-16z"/>
<path d="M1380 375 c-6 -8 -10 -19 -8 -24 1 -5 11 2 21 15 19 26 8 34 -13 9z"/>
<path d="M1355 319 c-11 -17 1 -21 15 -4 8 9 8 15 2 15 -6 0 -14 -5 -17 -11z"/>
</g>
</svg>
